<svg xmlns="http://www.w3.org/2000/svg" version="1.1" viewBox="-5.0 -10.0 110.0 135.0">
 <path d="m63.824 48.312-3.4219 3.418 3.9336 3.9336c1.707-0.64844 3.5117-0.97266 5.3164-0.97266 3.8281 0 7.6602 1.4609 10.582 4.3828 0.58594 0.58594 0.58594 1.5352 0 2.1211-0.58594 0.58594-1.5352 0.58594-2.1211 0-2.3359-2.3359-5.3984-3.5039-8.4609-3.5039s-6.125 1.168-8.4609 3.5039c-2.3359 2.332-3.5039 5.3945-3.5039 8.4609 0 2.5938 0.83594 5.1836 2.5078 7.3359l13.465-13.465c0.58594-0.58594 1.5352-0.58594 2.1211 0 0.58594 0.58594 0.58594 1.5352 0 2.1211l-4.0117 4.0117 3.4141 3.418c0.96094-0.57422 2.0469-0.86328 3.1289-0.86328 1.5586 0 3.1172 0.59766 4.3086 1.7852l0.097656 0.097656c1.1328 1.1797 1.6992 2.7031 1.6992 4.2227 0 1.5586-0.59766 3.1172-1.7891 4.3125l-0.097656 0.09375c-1.1797 1.1328-2.6992 1.6992-4.2188 1.6992-1.5586 0-3.1172-0.59766-4.3086-1.7852-1.1992-1.1953-1.7969-2.7578-1.7969-4.3203 0-1.082 0.28516-2.168 0.86328-3.1289l-3.4141-3.418-8.4609 8.4648c-0.58594 0.58594-1.5352 0.58594-2.1211 0l-0.082031-0.089843c-2.8633-2.9102-4.3008-6.7031-4.3008-10.492 0-1.8047 0.32422-3.6094 0.97656-5.3164l-3.9336-3.9336-3.4219 3.4219c-0.58594 0.58594-1.5352 0.58594-2.1211 0l-10.941-10.941-5.2422 5.2422 3.6992 3.7031c0.58594 0.58594 0.58594 1.5352 0 2.1211l-6.0898 6.0898c-0.58594 0.58594-1.5352 0.58594-2.1211 0-0.58594-0.58594-0.58594-1.5352 0-2.1211l5.0273-5.0273-7.3945-7.3945-16.008 16.004 7.3945 7.3945 1.9102-1.9102c0.58594-0.58594 1.5352-0.58594 2.1211 0 0.58594 0.58594 0.58594 1.5352 0 2.1211l-2.9688 2.9688c-0.58594 0.58594-1.5352 0.58594-2.1211 0l-9.5156-9.5156c-0.58594-0.58594-0.58594-1.5352 0-2.1211l18.129-18.125c0.58594-0.58594 1.5352-0.58594 2.1211 0l3.6953 3.6953 5.2422-5.2422-10.941-10.941c-1.5547-1.5547-2.332-3.6055-2.332-5.6523 0-1.5156 0.42969-3.0391 1.2891-4.3555l-3.2227-3.2227c-0.58594-0.58203-0.58984-1.5312-0.007813-2.1172l6.5547-6.5625c0.58594-0.58594 1.5352-0.58594 2.1211 0l3.2227 3.2305c1.3164-0.85938 2.8398-1.2891 4.3594-1.2891 2.043 0 4.0898 0.78125 5.6445 2.332l10.949 10.945 5.2422-5.2422-3.6953-3.6953c-0.58594-0.58594-0.58594-1.5352 0-2.1211l4.5391-4.5391c0.58594-0.58594 1.5352-0.58594 2.1211 0 0.58594 0.58594 0.58594 1.5352 0 2.1211l-3.4766 3.4766 7.3945 7.3945 16.004-16.004-7.3945-7.3945-8.0547 8.0547c-0.58594 0.58594-1.5352 0.58594-2.1211 0-0.58594-0.58594-0.58594-1.5352 0-2.1211l9.1172-9.1172c0.58594-0.58594 1.5352-0.58594 2.1211 0l9.5156 9.5156c0.58594 0.58594 0.58594 1.5352 0 2.1211l-18.125 18.125c-0.58594 0.58594-1.5352 0.58594-2.1211 0l-3.6992-3.6992-5.2422 5.2422 10.941 10.941c0.58594 0.58594 0.58594 1.5352 0 2.1211zm29.711 34.906c0.16797-0.80859 0.96094-1.3281 1.7695-1.1602 0.80859 0.16797 1.3281 0.96094 1.1602 1.7695-0.71875 3.457-2.1406 6.25-4.2617 8.3711-2.1289 2.125-4.918 3.5508-8.3789 4.2656-0.80859 0.16797-1.6016-0.35156-1.7695-1.1602-0.16797-0.80859 0.35156-1.6016 1.1602-1.7695 2.875-0.59766 5.168-1.7461 6.8672-3.4492 1.7031-1.7031 2.8555-3.9922 3.4492-6.8672zm-5.8242-0.89844c0.16797-0.80859 0.96094-1.3281 1.7695-1.1602 0.80859 0.16797 1.3281 0.96094 1.1602 1.7695-0.43359 2.0938-1.3047 3.7969-2.6055 5.1016-1.3086 1.3086-3.0117 2.1797-5.1055 2.6133-0.80859 0.16797-1.6016-0.35156-1.7695-1.1602-0.16797-0.80859 0.35156-1.6016 1.1602-1.7695 1.5156-0.3125 2.7188-0.91406 3.5938-1.793 0.88281-0.88281 1.4844-2.0859 1.7969-3.6016zm-7.2031-1.8047c0.60938-0.60547 0.91406-1.4023 0.91406-2.1992 0-0.76953-0.28125-1.5391-0.84375-2.1328l-0.066406-0.0625c-0.60547-0.60938-1.4023-0.91016-2.1953-0.91016-0.76953 0-1.5352 0.28125-2.1328 0.84375l-0.058594 0.0625c-0.60938 0.60547-0.91406 1.4023-0.91406 2.1992 0 0.79297 0.30469 1.5898 0.91016 2.1953 0.60547 0.60938 1.4023 0.91016 2.1953 0.91016 0.76953 0 1.5352-0.28125 2.1328-0.84375zm-18.984-23.422-3.2422-3.2422-4.4336 4.4375 3.2422 3.2422c0.5625-0.86719 1.2227-1.6875 1.9844-2.4492s1.582-1.4258 2.4531-1.9883zm-40.5 15.297c0.58594-0.58594 1.5352-0.58594 2.1211 0 0.58594 0.58594 0.58594 1.5352 0 2.1211l-0.12109 0.12109c-0.58594 0.58594-1.5352 0.58594-2.1211 0-0.58594-0.58594-0.58594-1.5352 0-2.1211zm2.1133-44.812 4.4375-4.4375-2.0469-2.0469-4.4375 4.4375zm34.102 16.27-13.395 13.395 3.4062 3.4023 13.395-13.391zm-15.516 11.27 13.395-13.395-15.43-15.43-13.391 13.395zm-17.547-17.551 13.387-13.387c-0.94922-0.88281-2.1719-1.3281-3.3984-1.3281-1.2539 0-2.5039 0.46484-3.4648 1.3867l-6.3984 6.4023c-0.97266 0.96484-1.4531 2.2461-1.4531 3.5273 0 1.2227 0.44141 2.4453 1.3281 3.3984z"/>
</svg>