<svg xmlns="http://www.w3.org/2000/svg" version="1.1" viewBox="-5.0 -10.0 110.0 135.0">
 <path d="m77.773 64.223c-1.6562-3.2891-3.1758-6.6016-5.1719-9.1055-2.4688-3.0938-5.5859-5.1172-10.125-5.1172h-25c-4.5312 0-7.6562 2.0195-10.125 5.1094-2.0039 2.5078-3.5312 5.8242-5.1719 9.1211-2.0039 4.0312-2.8477 8.0508-3.1992 10.699-0.003907 0.03125-0.003907 0.058593-0.007813 0.085937-0.32422 3.1406 1.7539 6.0273 4.8359 6.7109 6.9648 1.582 25.492 5.6992 25.492 5.6992 0.44531 0.097657 0.91016 0.097657 1.3555 0 0 0 18.527-4.1172 25.508-5.668 3.0938-0.6875 5.1875-3.5781 4.8633-6.7344-0.003906-0.042969-0.007813-0.085938-0.015625-0.12891-0.37891-2.6406-1.2227-6.6523-3.2383-10.672zm-2.9648 11.434-24.832 5.5195c-3.3906-0.75781-18.594-4.1367-24.785-5.543 0.29688-2.1602 0.97656-5.3867 2.582-8.6133 1.1797-2.3633 2.2578-4.75 3.5664-6.7617 1.4609-2.2422 3.1914-4.0078 6.1367-4.0078h25c2.9492 0 4.6719 1.7695 6.1328 4.0117 1.3047 2.0117 2.3906 4.4023 3.5781 6.7656 1.6211 3.2305 2.3008 6.4648 2.6211 8.6289zm-24.832-66.281c-10.344 0-18.75 8.4023-18.75 18.75s8.4062 18.75 18.75 18.75c10.352 0 18.75-8.4023 18.75-18.75s-8.3984-18.75-18.75-18.75zm0 6.25c6.9023 0 12.5 5.6016 12.5 12.5s-5.5977 12.5-12.5 12.5c-6.8945 0-12.5-5.6016-12.5-12.5s5.6055-12.5 12.5-12.5z" fill-rule="evenodd"/>
</svg>